<?xml version="1.0"?>
<svg xmlns="http://www.w3.org/2000/svg" height="512px" viewBox="-102 0 512 512" width="512px"><g><path d="m251.738281 54.339844h-37.203125c-4.183594 0-7.570312-3.390625-7.570312-7.570313 0-4.183593 3.386718-7.574219 7.570312-7.574219h37.203125c4.183594 0 7.570313 3.390626 7.570313 7.574219 0 4.179688-3.386719 7.570313-7.570313 7.570313zm0 0" data-original="#000000" class="active-path" data-old_color="#000000" fill="#E2566D"/><path d="m282.3125 234.375h-21.710938v-226.804688c0-4.179687-3.390624-7.570312-7.574218-7.570312h-84.535156c-4.183594 0-7.570313 3.390625-7.570313 7.570312v52.210938h-35.925781c-4.183594 0-7.570313 3.390625-7.570313 7.570312v61.527344.007813 47.605469c-.03125-.054688-.058593-.109376-.085937-.167969-.046875-.101563-.082032-.203125-.132813-.304688-9.652343-19.210937-19.003906-35.515625-27.835937-48.550781 1.445312-2.183594 2.730468-4.488281 3.828125-6.921875 5.378906-11.914063 5.796875-25.214844 1.179687-37.445313-8.835937-23.390624-61.96875-53.386718-68-56.730468-1.816406-1.007813-3.980468-1.164063-5.925781-.429688-1.941406.734375-3.460937 2.285156-4.160156 4.238282-2.3125 6.496093-22.335938 64.132812-13.5 87.523437 4.621093 12.230469 13.726562 21.929687 25.644531 27.3125 2.429688 1.097656 4.921875 1.988281 7.445312 2.671875.039063.304688.082032.617188.125.925781.179688 1.367188.371094 2.753907.578126 4.171875.070312.484375.148437.976563.222656 1.464844.160156 1.054688.328125 2.117188.503906 3.191406.09375.59375.191406 1.179688.289062 1.777344.234376 1.390625.480469 2.804688.738282 4.230469.113281.628906.230468 1.265625.347656 1.898437.214844 1.152344.433594 2.316406.664062 3.492188.09375.492187.1875.976562.285157 1.472656.320312 1.628906.660156 3.285156 1.011719 4.953125.089843.4375.183593.875.277343 1.3125 1.746094 8.230469 3.8125 16.910156 6.179688 25.925781.019531.070313.046875.140625.066406.210938 2.667969 10.160156 5.714844 20.761718 9.105469 31.660156h-30.964844c-13.957031 0-25.3125 11.355469-25.3125 25.3125v21.054688c0 13.957031 11.355469 25.3125 25.3125 25.3125h4.324219v59.273437c0 4.183594 3.390625 7.574219 7.574219 7.574219 4.179687 0 7.570312-3.390625 7.570312-7.574219v-59.273437h218.0625v171.117187c0 10.851563-8.832031 19.683594-19.6875 19.683594h-178.6875c-10.855469 0-19.6875-8.832031-19.6875-19.683594v-76.859375c0-4.183594-3.390625-7.574219-7.570312-7.574219-4.183594 0-7.574219 3.390625-7.574219 7.574219v76.859375c0 19.203125 15.625 34.828125 34.832031 34.828125h178.6875c19.203125 0 34.828125-15.625 34.828125-34.828125v-171.117187h4.328125c13.957031 0 25.308594-11.355469 25.308594-25.3125v-21.054688c.003906-13.957031-11.351563-25.3125-25.308594-25.3125zm-106.25-219.230469h69.394531v63.761719h-30.921875c-4.183594 0-7.570312 3.390625-7.570312 7.570312 0 4.183594 3.386718 7.574219 7.570312 7.574219h30.921875v24.5625h-30.921875c-4.183594 0-7.570312 3.390625-7.570312 7.574219 0 4.179688 3.386718 7.570312 7.570312 7.570312h30.921875v24.566407h-30.921875c-4.183594 0-7.570312 3.386719-7.570312 7.570312 0 4.179688 3.386718 7.570313 7.570312 7.570313h30.921875v24.566406h-30.921875c-4.183594 0-7.570312 3.390625-7.570312 7.570312 0 4.183594 3.386718 7.574219 7.570312 7.574219h30.921875v21.199219h-51.058593v-167.023438c0-4.179687-3.390626-7.570312-7.574219-7.570312h-10.761719zm3.191406 121.304688v97.925781h-15.773437v-97.925781zm0-61.527344v44.308594h-46.6875v-44.308594zm-46.6875 133.390625v-71.863281h15.773438v97.925781h-4.839844c-3.582031-8.8125-7.242188-17.425781-10.949219-25.777344.003907-.09375.015625-.1875.015625-.285156zm-75.015625-22.261719c-.09375-.394531-.191406-.785156-.28125-1.175781-.375-1.59375-.738281-3.164062-1.09375-4.726562-.144531-.640626-.289062-1.277344-.429687-1.914063-.308594-1.378906-.609375-2.75-.898438-4.105469-.164062-.777344-.324218-1.550781-.484375-2.320312-.171875-.824219-.339843-1.640625-.503906-2.453125-.246094-1.222657-.484375-2.429688-.71875-3.625-.136719-.722657-.273437-1.4375-.40625-2.148438-.203125-1.070312-.394531-2.132812-.582031-3.183593-.160156-.894532-.316406-1.785157-.464844-2.667969-.121094-.695313-.238281-1.386719-.347656-2.070313-.203125-1.21875-.390625-2.425781-.570313-3.613281-.082031-.527344-.15625-1.046875-.234375-1.566406-.054687-.386719-.105468-.761719-.160156-1.140625 5.238281-.199219 10.464844-1.238282 15.511719-3.144532 5.046875-1.910156 9.652343-4.589843 13.710937-7.90625.128906.195313.257813.386719.386719.582032.054687.082031.109375.164062.164063.25 4.972656 7.628906 10.203124 16.46875 15.523437 26.222656.1875.34375.375.683594.5625 1.03125.269531.496094.539063 1 .808594 1.5.371093.691406.742187 1.382812 1.113281 2.082031.132812.246094.261719.492188.390625.738281.816406 1.539063 1.632813 3.101563 2.453125 4.679688l-42.167969 15.933594c-.441406-1.773438-.867187-3.523438-1.28125-5.257813zm-41.535156-73.34375c-4.703125-12.453125 3.359375-46.449219 10.871094-69.742187 21.035156 12.5 49.558593 32.667968 54.269531 45.132812 3.285156 8.699219 2.988281 18.15625-.839844 26.632813-3.828125 8.476562-10.726562 14.953125-19.429687 18.242187-17.953125 6.785156-38.085938-2.304687-44.871094-20.265625zm46.410156 92.351563 44.972657-16.992188c3.394531 6.917969 6.789062 14.144532 10.152343 21.605469.222657 1.226563.742188 2.347656 1.476563 3.292969 3.101562 6.949218 6.171875 14.101562 9.195312 21.410156h-57.125c-3.191406-10.058594-6.097656-19.878906-8.671875-29.316406zm230.054688 75.683594c0 5.605468-4.5625 10.167968-10.167969 10.167968h-257c-5.605469 0-10.167969-4.5625-10.167969-10.167968v-21.054688c0-5.609375 4.5625-10.167969 10.167969-10.167969h226.398438c.425781.074219.867187.121094 1.316406.121094.453125 0 .890625-.046875 1.320312-.121094h27.964844c5.605469 0 10.167969 4.558594 10.167969 10.167969zm0 0" data-original="#000000" class="active-path" data-old_color="#000000" fill="#E2566D"/></g> </svg>
